<svg t="1689929210531" class="icon" viewBox="0 0 1024 1024" version="1.1" xmlns="http://www.w3.org/2000/svg" p-id="4053"
  width="200" height="200">
  <path
    d="M820.421281 233.315651c22.803615 22.390161 32.82194 50.250644 32.885549 81.545982 0.254434 143.595987 0.826909 287.223779-0.22263 430.819766-0.508867 70.414511-54.130758 120.410721-126.485324 120.537938-143.08712 0.286238-286.142436 0.095413-429.229556 0.031804-6.869708 0-13.803025-0.254434-20.577321-1.272168-64.244495-9.668478-106.162437-58.138087-106.289654-123.845575-0.286238-129.824766-0.095413-259.649533-0.063608-389.474299 0-16.41097-0.572476-32.917353 0.890517-49.23291 2.544336-28.273939 13.484983-52.954002 35.207256-72.131938 3.116812-0.922322 3.880113 0.954126 4.134546 3.434854-1.81284 9.541262-11.004255 14.407305-14.470913 22.899028-10.5908 19.273348-15.584061 40.041495-17.047054 61.859179-0.031804 142.260211-0.095413 284.456813 0.063608 426.653415 1.558406 29.768736 12.053794 55.752772 33.299003 77.06159 22.740007 22.867224 51.204771 31.517968 82.500109 33.235395 144.518309 0.063608 289.004814 0 433.427711-0.031805 31.327142-1.526602 59.728298-10.463584 82.563717-33.20359 21.372426-21.213405 31.581576-47.229245 33.330807-76.966177 0.159021-142.260211 0.031804-284.488617 0-426.685219-1.367581-21.913097-6.583471-42.776656-17.174271-62.145417-2.576141-7.41038-11.354101-11.258689-11.640339-19.973041 0.763301-2.353511 1.81284-4.357176 4.897847-3.116812z"
    fill="#123450" p-id="4054"></path>
  <path
    d="M225.555424 214.487561c20.863559-15.361431 44.653104-20.227475 70.064665-20.163866 85.648725 0.159021 171.29745 0.031804 256.946175 0.063608 61.318508 0.031804 122.605212 0.190825 183.92372 0.254434 10.113737 0 20.036649 1.113147 29.577911 4.643414 2.003665 2.607945 1.81284 4.929652-0.985931 6.869708-11.19508 1.844644-21.849489-1.940057-32.790136-3.085008-145.88589-0.318042-291.739976-0.063608-437.530453-0.095412-22.453769 0.540671-43.094698 8.205485-63.576606 16.538186a9.922912 9.922912 0 0 1-4.99326-0.795105c-1.653819-1.20856-1.876448-2.607945-0.636085-4.229959z"
    fill="#133450" p-id="4055"></path>
  <path
    d="M766.131503 204.278411c0-1.685623-0.031804-3.371246-0.031804-5.025064 3.212225 0.731497 6.424449 1.431189 9.636674 2.162686 1.240364 0.413455 2.162686 1.176756 2.79877 2.289902 16.474578 6.329037 30.977296 15.456844 41.886138 29.609716l-3.244028 2.766965c-12.658074 1.781036-15.42504-12.340032-25.02991-15.488648-7.951051-6.551666-20.609125-5.692953-26.01584-16.315557z"
    fill="#223E5A" p-id="4056"></path>
  <path
    d="M225.555424 214.487561c0 1.462993 0.031804 2.957791 0.031805 4.420784-2.258099 8.237289-5.056869 15.870298-16.220145 13.103333l-2.862379-1.717427c4.643414-7.346771 11.099668-12.499053 19.050719-15.80669z"
    fill="#2F4763" p-id="4057"></path>
  <path
    d="M734.390906 859.158804c-8.428114 0.254434-16.856229 0.731497-25.316147 0.731496-133.673075 0.031804-267.377954 0.031804-401.05103 0-6.329037 0-12.62627-0.477063-18.955306-0.731496-1.781036-3.307637-1.399385-6.010995 2.067273-7.951052 6.583471-2.862378 13.548591-2.067273 20.386496-2.067273 133.450446-0.063608 266.932696-0.063608 400.383141 0 6.837904 0 13.803025-0.795105 20.386495 2.035469 3.466658 1.971861 3.880113 4.675218 2.099078 7.982856zM848.09094 312.889772c0.254434 14.82076 0.731497 29.641519 0.731497 44.462279 0.063608 125.08594 0.063608 250.140075-0.031804 375.226015 0 6.297233-0.890518 12.594465-1.367581 18.891698-3.530267-0.031804-6.010995-1.685623-7.569401-4.834239-2.480728-6.647079-1.81284-13.580396-1.81284-20.450104-0.063608-130.270025-0.063608-260.54005 0-390.84188 0-6.837904-0.795105-13.803025 2.035469-20.386495 1.971861-3.434854 4.707022-3.848309 8.01466-2.067274zM176.036277 751.469764c-0.477063-4.166351-1.367581-8.364506-1.367581-12.530857-0.063608-138.857161-0.063608-277.714321-0.031804-416.571481 0-3.148616 0.477063-6.329037 0.731496-9.477654 3.307637-1.781036 6.010995-1.399385 7.951052 2.067274 2.862378 6.551666 2.067273 13.548591 2.067273 20.386495 0.063608 130.270025 0.063608 260.54005 0 390.810076 0 6.837904 0.667888 13.803025-1.781035 20.450104-1.494798 3.180421-4.00733 4.834239-7.569401 4.866043z"
    fill="#385FAC" p-id="4058"></path>
  <path
    d="M734.390906 859.158804c-0.031804-1.717427-0.031804-3.434854-0.063608-5.152282 3.180421-4.484393 8.205485-3.911917 12.753486-4.866043 19.20974-4.00733 37.179116-10.781626 52.508743-23.503308 3.244029-2.703357 6.456254-5.438519 11.067863-5.279498 1.844644 0.38165 2.79877 1.494798 2.830575 3.40305-20.609125 24.743672-48.787651 32.408485-79.097059 35.398081zM289.132031 854.038327c-0.031804 1.717427-0.031804 3.434854-0.063608 5.152281-29.864149-2.989595-57.788241-10.304563-78.238346-34.571171 0.286238-1.717427 1.240364-2.925987 2.79877-3.657484 2.766966-0.095413 5.247694 0.826909 7.314968 2.544336 17.842159 15.106998 38.705718 23.21707 61.604745 26.651924 2.671553 0.38165 5.056869 1.462993 6.583471 3.880114z"
    fill="#4065AB" p-id="4059"></path>
  <path
    d="M212.674721 823.28366c-0.508867 0.60428-1.144951 1.049539-1.876448 1.335777-23.058049-18.923502-32.281268-44.430475-34.761996-73.149673l4.484393-2.862378c5.788365 4.420785 4.102742 11.41771 5.883778 17.237879 5.025064 16.538187 10.431779 32.758332 22.899027 45.639035 2.862378 2.957791 7.664813 6.360841 3.371246 11.79936zM813.456161 823.792527c-0.222629-0.763301-0.636084-1.399385-1.272169-1.908252-5.311302-3.244029-1.20856-6.519862 0.667889-8.587136 15.170606-16.538187 22.485573-36.479424 26.143056-58.138087 0.445259-2.639749 1.558406-4.99326 3.943722-6.551666l4.484393 2.862378c-2.480728 28.242134-11.385906 53.494673-33.966891 72.322763z"
    fill="#4066AC" p-id="4060"></path>
  <path
    d="M848.09094 312.889772c-1.717427 0.031804-3.434854 0.031804-5.152281 0.063609-7.982856-17.937572-10.622605-37.656179-18.573656-55.593751 0.572476-2.607945 1.526602-4.802435 4.770631-4.707023 12.467249 18.128397 16.888033 38.832935 18.955306 60.237165zM180.552474 312.953381c-1.717427-0.031804-3.434854-0.031804-5.152281-0.063609 2.067273-21.436034 6.488058-42.108768 18.98711-60.237165 3.244029-0.095413 4.166351 2.130882 4.738827 4.707023-7.760226 18.032984-11.004255 37.528962-18.573656 55.593751z"
    fill="#4165AB" p-id="4061"></path>
  <path
    d="M196.995248 256.023853c-0.890518-1.113147-1.749231-2.258099-2.639749-3.371246 4.99326-6.869708 10.018325-13.739417 15.011585-20.640929 7.442184-1.844644 11.226884-8.269093 16.220145-13.135137 1.081343-0.222629 2.162686-0.445259 3.244029-0.699692 2.41712 0.540671 3.975526 1.781036 3.848308 4.484393-11.513122 11.544927-21.02258 25.188931-35.684318 33.362611z"
    fill="#3E64AA" p-id="4062"></path>
  <path
    d="M829.10383 252.652607c-0.890518 1.113147-1.781036 2.258099-2.671554 3.371246-14.566326-8.173681-24.107588-21.785881-35.62071-33.267199-0.190825-2.703357 1.335777-4.00733 3.784701-4.484393l22.580986 17.810355c3.975526 5.533932 7.951051 11.067863 11.926577 16.569991z"
    fill="#3E63A9" p-id="4063"></path>
  <path
    d="M289.068423 199.221542c11.099668-0.254434 22.23114-0.731497 33.330807-0.731496 131.955648-0.063608 263.911296-0.063608 395.898748 0.031804 6.297233 0 12.594465 0.858714 18.923502 1.303972-0.031804 3.530267-1.653819 6.042799-4.802435 7.601205-6.647079 2.512532-13.580396 1.844644-20.450104 1.844644-133.48225 0.063608-266.9645 0.063608-400.414945 0-6.837904 0-13.803025 0.795105-20.386496-2.035469-3.466658-2.003665-3.880113-4.738827-2.099077-8.01466z"
    fill="#385FAC" p-id="4064"></path>
  <path
    d="M289.068423 199.221542c0.031804 1.717427 0.031804 3.434854 0.063608 5.152282-18.669069 6.583471-37.242724 13.484983-56.929528 16.474578l-3.371245-2.607945c18.128397-12.530857 38.801131-16.983446 60.237165-19.018915zM734.327298 204.342019c0.954126-1.526602 1.908252-3.0214 2.862378-4.548001 9.636674 1.494798 19.273348 2.989595 28.941827 4.484393 9.477653 4.675218 18.987111 9.350436 28.464764 14.025655-1.113147 0.826909-2.226294 1.685623-3.339442 2.512532-10.177346 4.229959-16.379166-6.996925-25.570581-6.551666-4.516197-1.303972-9.00059-2.639749-13.548591-3.752897-5.82017-2.353511-13.230549-0.254434-17.810355-6.170016z"
    fill="#4165AB" p-id="4065"></path>
  <path
    d="M766.099699 211.179924c9.954716-0.826909 16.251949 7.855639 25.18893 9.636674 13.262354 10.20915 24.998105 21.913097 35.175452 35.207255 8.746156 18.032984 16.474578 36.352207 16.474578 56.929528 0 145.218002 0 290.436003 0.031804 435.654005-0.318042 28.591981-13.930242 51.586421-30.754666 73.245085-15.520452 10.336367-29.832345 22.580986-48.660435 27.351616-9.668478 2.448924-19.241544 4.61161-29.19626 4.802435H289.163835c-29.514303-0.190825-53.62189-13.898438-76.45731-30.754666-9.22322-14.375501-21.499643-26.683728-26.238469-44.048825-2.766966-10.145542-5.629344-20.068454-5.915582-30.595645 0-145.218002 0-290.436003 0.031804-435.654005 0-20.545517 7.728422-38.896543 16.474578-56.929528 10.177346-13.294158 21.913097-25.02991 35.207256-35.207255 18.032984-8.714352 36.352207-16.474578 56.929527-16.474579h445.195267c6.297233 1.876448 13.548591-1.717427 19.273348 3.40305 0.954126 5.025064-1.717427 7.537597-6.106407 8.873374-146.999037-1.176756-293.998074-0.127217-440.997112-0.60428-24.902693-0.095413-48.342392 4.61161-69.651209 17.873963-8.141877 4.484393-15.361431 9.98652-20.577321 17.873964-17.3969 22.867224-24.139392 48.819455-24.107588 77.284219 0.095413 137.553188 0.286238 275.074572 0 412.595956-1.272168 54.4488 42.649439 100.501289 96.716589 101.296394 13.230549 0.190825 26.492903 0 39.723452-0.095413 6.392645-0.159021 12.753486-0.477063 19.146132-0.159021 17.3969-0.477063 34.761996-0.349846 52.158897-0.254433 7.855639 0.349846 15.711277-0.38165 23.535112 0.159021 25.888623-0.508867 51.777246-0.572476 77.665869 0 6.965121-0.286238 13.898438-0.318042 20.863559 0 25.888623-0.477063 51.777246-0.572476 77.665869 0 7.855639-0.477063 15.711277 0.095413 23.566916-0.095413 17.3969-0.159021 34.761996-0.318042 52.127093 0.190825 6.360841-0.413455 12.753486 0 19.114327 0.127217 13.739417 0.127217 27.478833 0.349846 41.250055 0.095413 51.745442-0.954126 95.380812-45.289188 95.698854-97.225456-0.159021-137.171538-0.572476-274.311271 0.159021-411.451005 0.254434-50.791316-16.506383-89.910489-65.135013-111.25111-2.448924-1.081343-4.516197-2.766966-6.233624-4.802435-2.894183-6.329037 3.180421-5.21589 5.851974-6.996925z"
    fill="#123450" p-id="4066"></path>
  <path
    d="M750.674659 213.628847c0.98593-1.940057 1.971861-3.911917 2.957791-5.851973 4.484393 0.031804 9.032394-0.318042 12.467249 3.434854-1.176756 2.957791-3.975526 2.830574-6.42445 3.275833-3.275833 2.385315-6.297233 2.576141-9.00059-0.858714z"
    fill="#05111C" p-id="4067"></path>
  <path
    d="M750.674659 213.628847l9.00059 0.858714c40.391341 15.456844 67.106873 42.80846 74.962512 86.412026 0.826909 4.643414 1.335777 9.414045 1.335777 14.121067 0.031804 144.454701-0.031804 288.909401-0.095413 433.364102-13.771221 42.776656-59.569277 77.952107-105.621766 80.432836-13.644004 0.731497-27.383421 1.367581-41.027425-0.890518-1.622014-0.477063-3.116812-1.240364-4.452588-2.226294-5.343107-4.707022-7.919247-11.19508-10.845234-17.365097-25.952232-55.021275-53.335652-109.342858-78.842625-164.586762-11.290493-24.42563-28.846414-34.984626-54.989472-34.284934-19.559586 0.540671-39.150977 0.222629-58.742367 0.095413-23.980371-0.159021-41.091033 9.445849-51.745442 31.963226-25.984036 54.989471-52.41333 109.788117-78.938038 164.554959-3.212225 6.615275-5.947386 13.6122-11.290493 19.018915-1.272168 1.144951-2.735162 1.971861-4.325372 2.57614-53.685499 6.965121-99.483554-6.583471-133.64127-50.982141-7.251359-9.414045-11.067863-20.163866-13.962047-31.422555 0-141.528714-0.159021-283.025624 0.127217-424.554337 0.063608-28.242134 7.664813-54.22617 28.655589-74.739883 8.428114-0.318042 13.325962-4.866043 15.361431-12.848899 17.142467-16.220145 38.832935-21.467839 61.032271-21.531447 145.88589-0.540671 291.77178-0.318042 437.657669-0.190825 6.837904 0.031804 13.6122 1.462993 20.386496 2.226294z"
    fill="#1A547E" p-id="4068"></path>
  <path
    d="M187.485791 745.299748c19.018915 41.949747 50.600491 68.665279 95.889679 78.206541 17.61953 3.721092 35.652514 0.826909 53.494673 1.590211 1.81284 9.573066-3.7847 15.933907-9.668478 22.167531-27.065379-1.272168-54.703233 4.261764-80.528248-9.8275-36.765661-20.100258-56.929528-50.21884-59.187626-92.136783zM686.62099 825.032891c27.288008-0.095413 54.544212 1.971861 80.687269-9.827499 31.23173-14.089263 52.890394-37.179116 68.569866-66.820636-2.162686 54.130758-48.02435 98.783862-101.582632 98.847471h-38.037829c-5.883778-6.233624-11.544927-12.562661-9.636674-22.199336z"
    fill="#103F60" p-id="4069"></path>
  <path
    d="M501.870361 847.073206c-26.461099 0.063608-52.890394 0.095413-79.351493 0.159021-5.152281-12.02199-1.272168-19.623195 11.226885-23.026245 18.160201-3.244029 36.320403-3.816505 54.544212-0.22263 17.61953 5.374911 19.368761 8.364506 13.580396 23.089854z"
    fill="#B54544" p-id="4070"></path>
  <path
    d="M600.717831 847.168618l-79.128863-0.095412c-4.738827-13.898438-3.371246-15.838494 16.347361-22.994441 4.325372-1.303972 8.714352-2.162686 13.262354-1.494798 14.025655 3.307637 28.687393-1.240364 42.649439 3.339442 7.346771 5.470323 12.499053 11.640339 6.869709 21.245209z"
    fill="#B64544" p-id="4071"></path>
  <path
    d="M676.18921 846.914185c-17.746747 0.095413-35.525297 0.190825-53.272044 0.318042-8.332702-5.470323-11.354101-13.421375-10.877038-23.058049 1.113147-2.576141 3.116812-3.752896 5.82017-3.975526 14.979781 0.795105 29.959561 0.60428 44.939342-0.095413 2.607945 0.031804 4.770631 0.98593 6.488058 2.989596 2.830574 7.79203 10.495388 14.184676 6.901512 23.82135zM400.478554 847.200422c-17.683138-0.095413-35.334472-0.222629-53.01761-0.318042-3.180421-10.20915 3.180421-16.856229 8.905177-23.757741 1.494798-0.858714 3.116812-1.431189 4.802435-1.81284 13.707613-1.685623 27.542442 0.60428 41.21825-1.781035 3.625679-0.222629 6.869708 0.38165 8.809765 3.911917 0.318042 9.700283-2.576141 17.905768-10.718017 23.757741z"
    fill="#B74644" p-id="4072"></path>
  <path
    d="M540.035407 827.322794c-9.414045 3.530267-22.358356 3.752896-18.414635 19.750412h-19.718607c2.957791-12.817095-2.957791-18.732677-15.297823-19.654999 0.413455-1.462993 0.318042-3.148616 2.035469-3.975526 12.689878-6.360841 42.554027-4.102742 51.395596 3.880113z"
    fill="#13273C" p-id="4073"></path>
  <path
    d="M400.478554 847.200422c3.116812-7.346771 6.265428-14.725347 9.38224-22.072118 9.00059-5.438519 17.778551-8.587135 25.284344 2.321707-11.958381 1.653819-11.354101 11.322297-12.62627 19.782216-7.346771 0-14.693543-0.031804-22.040314-0.031805z"
    fill="#16283E" p-id="4074"></path>
  <path
    d="M676.18921 846.914185c-2.79877-7.283163-5.59754-14.534522-8.39631-21.817685 6.20182-5.692953 12.40364-4.198155 18.60546 0.031804l0.22263-0.127217c3.085008 7.473988 8.491723 13.930242 9.668478 22.199335-6.710687-0.063608-13.38957-0.159021-20.100258-0.286237z"
    fill="#11283E" p-id="4075"></path>
  <path
    d="M355.889058 825.0965c-2.79877 7.251359-5.59754 14.534522-8.428114 21.78588-6.742492 0.127217-13.484983 0.222629-20.259279 0.349847 1.176756-8.269093 6.519862-14.725347 9.668478-22.167532l0.286238 0.095413c6.233624-4.293568 12.467249-5.851974 18.732677-0.063608z"
    fill="#10283E" p-id="4076"></path>
  <path
    d="M613.089667 825.0965l9.827499 22.135727c-7.378576-0.031804-14.788955-0.063608-22.167531-0.063609 0.318042-7.219555-3.0214-13.166941-6.519862-19.082523-0.858714-1.876448-0.445259-3.434854 1.20856-4.675218 6.20182-2.925987 12.181011-3.371246 17.651334 1.685623z"
    fill="#1E293E" p-id="4077"></path>
  <path
    d="M231.661832 233.156629c2.989595 5.025064 2.703357 9.922912-1.462994 14.025655-4.866043 4.770631-9.445849 1.367581-13.898437-1.176756 3.721092-5.947386 8.01466-11.226884 15.361431-12.848899z"
    fill="#E8EBEF" p-id="4078"></path>
  <path
    d="M613.089667 825.0965h-18.955307c-14.693543-0.127217-29.355282 0.095413-44.048824 0.318042l-10.050129 1.908252c-17.810355-3.7847-35.652514-3.975526-53.431065 0.095413-17.142467-2.639749-34.284933-1.685623-51.4274 0.031804-8.046464-4.929652-16.888033-1.431189-25.284343-2.321707-1.526602-2.353511-3.7847-3.085008-6.456254-2.766966-14.884368 3.116812-30.213995-1.59021-45.066559 2.544336l-1.240364-0.031804-1.20856 0.254434-18.732677 0.095412c30.468429-63.385781 61.127683-126.67615 91.27807-190.189148 7.728422-16.283753 20.100258-26.588316 37.433549-28.051309 30.563841-2.576141 61.318508-2.41712 91.88235-0.063608 18.478243 1.399385 30.150387 12.848899 38.069633 29.514302 29.895953 63.067739 60.332578 125.881045 90.546573 188.789763-6.20182 0-12.40364-0.031804-18.60546-0.031804-1.081343-1.049539-2.19449-2.130882-3.275833-3.212224-15.997515-10.399975-31.931422 0.508867-47.897133 0.095412-1.176756 0.954126-2.353511 2.003665-3.530267 3.0214zM387.279809 567.51424c-82.468305-4.707022-139.461441-60.618815-139.779483-141.27428-0.063608-11.703948 5.661149-14.788955 15.711278-14.089263 46.43414 3.180421 86.189397 22.740007 122.637015 50.282449 23.980371 18.096593 42.681244 42.585831 69.396777 57.406591 7.601205 4.229959 3.053204 8.968786 0.222629 13.00792-17.269684 24.680063-42.776656 32.662919-68.188216 34.666583zM637.16545 567.196198c-28.81461-0.858714-53.62189-9.98652-71.177811-34.41215-4.834239-6.742492-5.692953-10.304563 3.085008-15.329627 27.733267-15.774886 47.738112-41.313663 73.21328-60.173556 34.825605-25.761406 73.404106-40.963817 116.403392-45.384601 11.036059-1.144951 16.919837 4.770631 16.156536 14.502717-6.265428 78.270149-46.084294 128.393577-128.170947 140.765413-3.116812 0.413455-6.360841 0.031804-9.509458 0.031804z"
    fill="#123450" p-id="4079"></path>
  <path
    d="M640.886542 328.823679c4.738827 0.667888 8.173681 3.180421 7.887443 9.096003-0.286238 5.565736-3.466658 9.22322-8.746156 9.096003-5.788365-0.159021-10.145542-3.911917-9.509458-10.113738 0.540671-4.961456 3.943721-8.523527 10.368171-8.078268z"
    fill="#EBEFF3" p-id="4080"></path>
  <path
    d="M479.448396 269.063577c-1.113147 5.502128-3.657484 8.841569-9.382241 9.032395-5.883778 0.190825-8.905178-2.894183-9.191415-8.332702-0.38165-6.456254 3.689288-9.859304 9.668478-9.700283 5.311302 0.190825 8.046464 4.134547 8.905178 9.00059z"
    fill="#EDF1F5" p-id="4081"></path>
  <path
    d="M499.135199 347.301923c-5.470323-0.636084-9.064199-3.053204-9.8275-8.587136-0.795105-5.788365 2.258099-9.00059 7.63301-9.795695 6.424449-0.954126 10.145542 2.671553 10.686213 8.618939 0.540671 5.756561-4.229959 7.79203-8.491723 9.763892z"
    fill="#ECF0F4" p-id="4082"></path>
  <path
    d="M323.257943 347.270118c-5.21589-1.081343-8.650744-3.657484-8.968786-9.318632-0.318042-5.915582 3.085008-8.746156 8.428115-9.096003 6.456254-0.445259 9.954716 3.466658 9.827499 9.477654-0.095413 5.438519-4.452589 7.79203-9.286828 8.936981z"
    fill="#EBEFF4" p-id="4083"></path>
  <path
    d="M782.542473 275.806069c0.063608 6.901513-3.085008 10.940647-7.982856 11.226884-5.59754 0.318042-10.272758-3.371246-9.795695-9.60487 0.349846-4.61161 2.735162-9.255024 8.809765-8.905177 5.343107 0.254434 8.650744 3.0214 8.968786 7.283163z"
    fill="#F3F6F9" p-id="4084"></path>
  <path
    d="M667.7929 261.398764c-0.540671 5.565736-3.911917 8.428114-9.445849 8.300897-5.692953-0.127217-9.032394-3.7847-8.682548-9.191415 0.349846-5.184085 3.434854-8.555331 9.509457-8.237289 5.979191 0.318042 8.682548 3.116812 8.61894 9.127807z"
    fill="#F5F7FA" p-id="4085"></path>
  <path
    d="M372.99972 248.899711c5.152281-0.477063 8.650744 1.844644 8.714353 7.760226 0.063608 5.502128-2.576141 8.555331-8.523527 8.809765-5.979191 0.254434-9.191415-2.925987-9.382241-8.110072-0.190825-5.120477 2.512532-9.00059 9.191415-8.459919z"
    fill="#F0F3F6" p-id="4086"></path>
  <path
    d="M550.085536 825.414542c14.661739-4.039134 29.323477-5.947386 44.048824-0.318042 0.254434 0.98593 0.286238 1.971861 0.095413 2.989595-14.693543-1.20856-29.736932 3.0214-44.144237-2.671553z"
    fill="#C84F50" p-id="4087"></path>
  <path
    d="M616.588129 822.011492c9.954716-4.897848 20.4183-8.61894 31.486164-9.191416 6.774296-0.349846 13.866634 0.826909 16.41097 9.096003-15.933907 5.470323-31.899618 5.311302-47.897134 0.095413z"
    fill="#E75A5A" p-id="4088"></path>
  <path
    d="M358.337982 824.905674c14.661739-7.314967 29.927757-3.498463 45.066559-2.544336-14.725347 5.979191-30.054974 1.685623-45.066559 2.544336z"
    fill="#EA5B5A" p-id="4089"></path>
  <path
    d="M436.258285 809.06718c0.731497-12.817095 6.170016-17.969376 17.460509-20.004845 11.576731-2.099078 22.99444-1.971861 34.507562-2.258099 13.675808-0.349846 14.979781 8.078268 13.993851 18.700873-0.413455 4.579806-1.367581 6.138212-6.678883 5.120477-19.20974-3.657484-38.705718-2.385315-59.283039-1.558406z"
    fill="#E85B5A" p-id="4090"></path>
  <path
    d="M562.13933 783.87825c3.689288 0 7.442184-0.38165 11.099667 0.063608 8.873373 1.081343 10.877038 8.777961 11.067864 15.170606 0.254434 7.633009-7.124142 3.530267-11.099668 4.293568-13.453179 2.544336-26.969966 4.770631-40.518557 6.869708-3.848309 0.60428-10.113737 6.360841-10.908843-2.130882-0.572476-6.233624-5.056869-15.42504 6.106408-18.38283 11.258689-2.957791 22.453769-6.20182 34.253129-5.883778z"
    fill="#EA5B5A" p-id="4091"></path>
  <path
    d="M572.73013 763.141908c-14.152871 2.099078-26.047644 3.975526-38.006025 5.59754-4.452589 0.60428-11.258689 6.551666-12.785291-1.558406-1.240364-6.742492-4.99326-16.188341 4.707023-21.054384 9.509457-4.738827 19.877628-6.965121 30.373016-5.629345 12.658074 1.653819 9.795695 14.343697 15.711277 22.644595z"
    fill="#E85B5A" p-id="4092"></path>
  <path
    d="M449.806876 771.411001c4.834239-20.640929 31.804205-33.80787 47.865329-24.42563 9.096003 5.311302 1.971861 14.375501 6.265429 23.4397-19.750412-3.943721-36.733857-3.244029-54.130758 0.98593z"
    fill="#E95B5A" p-id="4093"></path>
  <path
    d="M649.314657 790.46172c0.286238 4.675218-3.848309 4.039134-6.488058 4.675218-7.664813 1.908252-15.80669 2.480728-22.994441 5.406715-8.046464 3.275833-13.039724 6.615275-17.174271-5.565736-3.943721-11.544927 0.254434-15.043389 9.573066-18.414635 17.492313-6.329037 30.213995-3.275833 35.302668 9.191416 0.572476 1.462993 1.113147 2.957791 1.781036 4.707022z"
    fill="#E85B5A" p-id="4094"></path>
  <path
    d="M422.105414 768.166972c-6.742492-0.890518-13.548591-1.431189-20.195671-2.79877-4.516197-0.954126-12.594465 3.880113-12.944311-3.466658-0.349846-6.837904 3.721092-14.439109 12.435444-15.965711 7.696618-1.335777 15.552256-2.79877 23.312482-2.703358 4.420785 0.063608 13.739417-1.717427 11.067864 7.378576-2.035469 6.8061-0.667888 18.446439-13.675808 17.555921z"
    fill="#E75A5A" p-id="4095"></path>
  <path
    d="M406.457745 726.439855c7.537597-21.658664 14.025655-26.492903 32.026834-25.506973 5.661149 0.318042 13.866634-0.063608 12.181011 7.951051-1.431189 6.8061 0.127217 18.192005-13.039724 17.61953-9.922912-0.38165-19.845824-0.063608-31.168121-0.063608z"
    fill="#E85A5A" p-id="4096"></path>
  <path
    d="M631.154455 754.522968c-11.322297 0.445259-21.245209 2.067273-30.023169 6.965121-11.958381 6.710687-10.877038-3.657484-13.516788-9.477653-2.989595-6.615275-5.438519-12.435444 4.866044-15.520452 19.654999-5.851974 31.740597-0.858714 38.673913 18.032984z"
    fill="#E95B5A" p-id="4097"></path>
  <path
    d="M370.041929 802.547318c5.438519-16.951641 37.274529-25.888623 49.709973-15.297823 4.293568 3.689288 0.413455 6.774296-0.38165 9.732087-1.176756 4.229959-2.321707 10.527192-8.873373 8.205485-6.678883-2.353511-13.357766-2.448924-20.132062-2.607945-6.678883-0.159021-13.294158-0.031804-20.322888-0.031804z"
    fill="#E75A5A" p-id="4098"></path>
  <path
    d="M612.262757 715.912663c-9.859304 0.795105-19.654999 1.049539-28.973631 4.229959-10.336367 3.530267-8.364506-6.138212-11.067863-10.686213-3.434854-5.82017-1.240364-8.873373 4.675218-11.576731 18.82809-8.61894 27.796875-4.452589 35.366276 18.032985z"
    fill="#E85B5A" p-id="4099"></path>
  <path
    d="M427.671149 681.564121c3.816505-10.5908 5.088673-21.722272 19.750412-22.644594 19.782216-1.272168 22.61279 2.79877 14.916172 20.958971-2.385315 5.661149-4.866043 7.505792-10.240954 4.929652-7.41038-3.562071-15.488648-2.258099-24.42563-3.244029z"
    fill="#EA5B5A" p-id="4100"></path>
  <path
    d="M464.913874 728.888778c1.685623-14.725347 8.873373-22.23114 22.61279-22.771811 7.346771-0.286238 14.375501-1.749231 15.043389 10.018325 0.699693 11.894773-4.61161 11.79936-13.6122 11.036059-7.664813-0.667888-15.520452 1.017735-24.043979 1.717427zM594.070752 678.192875c-12.721682-10.20915-26.810945 19.400565-35.970556-7.155946-4.039134-11.703948 5.470323-10.495388 10.5908-12.817095 15.234214-6.869708 20.609125 2.989595 25.379756 19.973041z"
    fill="#E85B5A" p-id="4101"></path>
  <path
    d="M538.604218 701.982421c5.152281 0.858714 11.226884 0.922322 13.930242 7.505792 2.671553 6.488058 4.99326 12.721682-6.074603 12.848899-3.148616 0.031804-6.519862 1.685623-9.350437 0.922322-5.279498-1.431189-14.057459 12.117402-16.029319-4.039134-1.685623-13.739417 7.346771-15.42504 17.524117-17.237879z"
    fill="#E65A5A" p-id="4102"></path>
  <path
    d="M449.266205 638.692052c7.919247-13.325962 11.79936-14.947977 30.977296-12.880703-3.116812 17.778551-3.116812 17.778551-30.977296 12.880703z"
    fill="#E35959" p-id="4103"></path>
  <path
    d="M552.089201 624.507376c8.587135 0.60428 20.4183 2.894183 20.545517 10.654409 0.159021 9.064199-13.325962 6.774296-20.291083 8.650744-7.887443 2.099078-6.837904-8.61894-8.428115-13.834829-2.226294-7.18775 4.579806-4.579806 8.173681-5.470324z"
    fill="#E25959" p-id="4104"></path>
  <path
    d="M480.561543 686.780011c5.184085-7.283163-0.858714-21.913097 14.21648-21.02258 9.891108 0.572476 7.951051 8.777961 7.219554 14.502717-1.971861 15.80669-14.121067 3.530267-21.436034 6.519863z"
    fill="#E75A5A" p-id="4105"></path>
  <path
    d="M530.017082 684.776346c-7.124142 2.003665-8.777961-1.017735-8.936981-7.124142-0.190825-7.314967 3.593875-8.809765 9.732086-9.064199 8.237289-0.318042 10.018325 5.565736 10.240955 11.322297 0.349846 9.891108-8.364506 1.876448-11.03606 4.866044zM521.557164 631.18626c5.311302 5.025064 7.092338 11.258689 7.314967 17.937571 0 0.222629-3.40305 1.335777-4.293568 0.731497-7.124142-5.120477-0.98593-12.435444-3.021399-18.669068z"
    fill="#E45A59" p-id="4106"></path>
  <path
    d="M500.407367 630.931826c1.558406 5.247694 3.7847 10.749821-0.38165 15.647669-0.349846 0.38165-2.353511 0.127217-2.766966-0.445259-4.229959-5.915582 2.067273-9.922912 3.148616-15.20241z"
    fill="#E05959" p-id="4107"></path>
  <path
    d="M385.944032 548.272696c-63.131348-0.095413-112.809516-45.257384-119.329378-105.303724-1.144951-10.495388 0.795105-12.658074 11.226884-10.908842 40.900208 6.774296 75.24875 26.429295 106.385067 52.572351 15.329627 12.880703 29.959561 26.62012 45.352797 39.469019 5.311302 4.452589 4.866043 6.933317-0.254434 10.590801-13.803025 9.891108-28.751002 15.361431-43.380936 13.580395zM635.257198 548.272696c-15.297823 1.20856-30.02317-3.339442-43.03109-13.675808-4.420785-3.530267-6.329037-5.947386-0.349846-10.463584 25.665994-19.400565 46.974811-44.01702 74.390036-61.41392 24.393826-15.488648 50.314253-26.492903 78.969842-30.818275 5.947386-0.890518 11.290493-2.735162 10.272758 7.633009-6.138212 62.558872-56.357052 108.738578-120.2517 108.738578z"
    fill="#FFFFFF" p-id="4108"></path>
</svg>