<svg width="40" height="40" viewBox="0 0 40 40" fill="none" xmlns="http://www.w3.org/2000/svg">
<path d="M37.7422 0.814577C38.9058 1.71772 39.7229 2.84309 39.9735 4.31333C40.1036 5.84199 39.7607 7.2279 38.8048 8.45594C37.9328 9.41742 36.7074 10.0347 35.4138 10.1446C35.3103 10.1538 35.2067 10.1631 35.1001 10.1727C34.8986 10.1896 34.697 10.2048 34.4952 10.2178C34.2378 10.2337 34.2378 10.2337 33.9586 10.3389C33.8873 10.4981 33.824 10.6609 33.7646 10.8249C33.6546 11.0351 33.5416 11.2438 33.4266 11.4513C33.3774 11.5403 33.3774 11.5403 33.3272 11.6311C33.2226 11.8201 33.1177 12.0089 33.0127 12.1977C32.9437 12.3222 32.8748 12.4467 32.8058 12.5712C32.7551 12.6628 32.7551 12.6628 32.7034 12.7561C32.636 12.8779 32.5687 12.9996 32.5013 13.1214C32.3469 13.4008 32.1918 13.6798 32.0353 13.9581C31.9828 14.0523 31.9303 14.1465 31.8762 14.2435C31.8303 14.3251 31.7844 14.4067 31.7372 14.4908C31.5687 14.84 31.5098 15.1176 31.6303 15.4899C31.7795 15.7399 31.9462 15.9685 32.121 16.2013C33.1536 17.6291 33.4899 19.4135 33.2507 21.1407C33.0446 22.3331 32.5479 23.4267 31.7432 24.3362C31.5684 24.6335 31.4938 24.8682 31.5333 25.2086C31.6978 25.6266 31.9172 26.0096 32.1396 26.3992C32.2013 26.5102 32.263 26.6212 32.3265 26.7355C32.5127 27.0701 32.7021 27.4027 32.8915 27.7355C32.9975 27.9253 33.1035 28.1151 33.2094 28.305C33.3033 28.4716 33.3974 28.6381 33.4917 28.8046C33.5349 28.8811 33.578 28.9577 33.6224 29.0366C33.6627 29.1064 33.703 29.1761 33.7445 29.248C33.779 29.3082 33.8136 29.3685 33.8492 29.4306C34.0103 29.6536 34.1832 29.7629 34.4513 29.8176C34.5277 29.8257 34.6041 29.8338 34.6828 29.8421C34.7679 29.8521 34.853 29.8621 34.9406 29.8724C35.0308 29.8828 35.1209 29.8933 35.2138 29.904C36.8192 30.1133 37.9751 30.7012 39.0034 31.9692C39.8705 33.1499 39.9861 34.4851 39.8765 35.8992C39.637 37.1498 38.8941 38.3081 37.8817 39.07C37.1563 39.5573 36.2931 39.9322 35.4138 39.9811C35.3368 39.986 35.2598 39.9909 35.1804 39.9959C33.8389 40.0442 32.6166 39.6656 31.606 38.7784C31.4507 38.6304 31.2969 38.4807 31.1452 38.3289C31.088 38.2728 31.0309 38.2167 30.972 38.1588C30.0306 37.1554 29.8265 35.84 29.8533 34.5204C29.8947 33.6378 30.1743 32.8589 30.6647 32.1279C30.8082 31.7968 30.8033 31.5962 30.7571 31.2342C30.5978 30.8534 30.3973 30.4992 30.1932 30.1409C30.1365 30.0389 30.0797 29.937 30.0212 29.832C29.9044 29.6229 29.7868 29.4142 29.6686 29.2059C29.5069 28.921 29.3473 28.635 29.1882 28.3486C29.0949 28.1826 29.0014 28.0167 28.9078 27.8509C28.8651 27.7744 28.8224 27.6979 28.7784 27.619C28.738 27.5486 28.6975 27.4782 28.6558 27.4056C28.6211 27.3446 28.5865 27.2836 28.5508 27.2208C28.3978 27.0131 28.2642 26.894 28.0407 26.7636C27.7661 26.7226 27.7661 26.7226 27.4632 26.731C27.3498 26.7301 27.2363 26.7292 27.1195 26.7283C26.9392 26.7277 26.9392 26.7277 26.7553 26.7272C24.7091 26.6856 23.0973 26.1272 21.6378 24.6255C20.3955 23.2744 19.8539 21.6445 19.8347 19.8314C19.8253 19.3951 19.7609 19.1449 19.5034 18.7943C19.272 18.6344 19.272 18.6344 18.9964 18.5145C18.8925 18.4656 18.7887 18.4167 18.6817 18.3664C18.5687 18.3151 18.4557 18.2639 18.3393 18.2111C18.2198 18.1558 18.1003 18.1004 17.9808 18.0449C17.6686 17.9008 17.3547 17.7606 17.0399 17.622C16.9104 17.5647 16.7812 17.5067 16.6522 17.4481C16.4626 17.362 16.2721 17.2778 16.0814 17.1941C15.9699 17.1443 15.8584 17.0946 15.7436 17.0434C15.3931 16.9368 15.1963 16.944 14.8467 17.0449C14.6391 17.2229 14.6391 17.2229 14.5087 17.371C13.0608 18.9448 11.0312 19.9846 8.89017 20.0884C6.42239 20.161 4.29334 19.4839 2.46484 17.7635C0.878136 16.1583 -0.00833529 14.1295 5.90782e-05 11.8526C0.0586849 9.48098 1.03457 7.24879 2.71988 5.57676C4.38804 4.00517 6.53527 3.25886 8.81703 3.31715C10.846 3.41283 12.6468 4.2477 14.1676 5.57676C14.2271 5.62825 14.2867 5.67974 14.348 5.73279C15.7288 7.01766 16.5984 8.96673 16.787 10.8249C16.7957 11.236 16.7918 11.6468 16.787 12.0579C16.7845 12.275 16.7825 12.492 16.781 12.709C16.7793 12.8522 16.7793 12.8522 16.7775 12.9982C16.785 13.3316 16.785 13.3316 16.884 13.6433C17.0915 13.7517 17.0915 13.7517 17.3691 13.8377C17.4973 13.8947 17.6248 13.9533 17.7518 14.013C17.8592 14.063 17.8592 14.063 17.9687 14.1141C18.0447 14.1496 18.1207 14.185 18.199 14.2215C18.4471 14.3357 18.6953 14.4497 18.9435 14.5636C19.1146 14.6425 19.2854 14.722 19.456 14.802C19.7033 14.9178 19.9515 15.0315 20.2 15.1448C20.2756 15.1808 20.3512 15.2169 20.4291 15.254C20.903 15.467 21.2142 15.5314 21.7348 15.3927C21.9606 15.2426 21.9606 15.2426 22.1471 15.0404C23.2483 14.0023 24.6673 13.3453 26.1974 13.3381C26.3075 13.3362 26.4175 13.3343 26.5309 13.3324C26.7613 13.3291 26.9917 13.3273 27.2222 13.3271C27.8549 13.3211 27.8549 13.3211 28.4216 13.075C28.7175 12.6244 28.9741 12.1594 29.2231 11.6813C29.3337 11.4715 29.4445 11.2616 29.5554 11.0519C29.6103 10.948 29.6652 10.8441 29.7217 10.7371C29.8709 10.4604 30.0258 10.1885 30.1853 9.91755C30.2308 9.8394 30.2764 9.76124 30.3233 9.68072C30.4081 9.53639 30.4941 9.39284 30.5817 9.25026C30.7784 8.91145 30.855 8.73394 30.8481 8.33256C30.7576 8.00793 30.6436 7.75245 30.4782 7.45977C29.8253 6.2003 29.7261 4.91884 30.0754 3.55481C30.4925 2.2552 31.3797 1.22222 32.5701 0.572866C34.2203 -0.267396 36.1773 -0.180369 37.7422 0.814577Z" fill="black"/>
</svg>
